<svg width="58" height="119" viewBox="0 0 58 119" fill="none" xmlns="http://www.w3.org/2000/svg">
<path d="M57.9411 34.7286C57.9411 45.885 51.4632 53.0826 49.3039 55.6018C46.4248 59.3806 35.4484 73.416 26.9912 84.0325C24.472 87.2715 21.9528 90.3305 21.9528 95.7287V100.407H56.1417V118.941H1.79941V96.4485C1.79941 89.9706 2.87906 87.2715 4.85841 82.4131C7.01771 76.475 28.4307 52.5428 30.7699 49.3039C32.9292 46.6048 38.1475 40.6667 38.1475 34.5487V26.0915C38.1475 21.5929 36.708 19.2537 32.3894 19.2537H26.0915C21.2331 19.2537 20.1534 21.5929 20.1534 26.0915V35.2685H0V23.0325C0 9.71682 9.89677 0 23.0325 0H36.1682C38.1475 0 57.9411 3.23894 57.9411 23.7522V34.7286Z" fill="white"/>
</svg>
